<svg width="36" height="47" xmlns="http://www.w3.org/2000/svg" fill="currentColor" xmlns:xlink="http://www.w3.org/1999/xlink" xml:space="preserve" overflow="hidden"><defs><clipPath id="clip0"><rect x="904" y="348" width="36" height="47"/></clipPath></defs><g clip-path="url(#clip0)" transform="translate(-904 -348)"><path d="M1.72475 69.5496C0.574917 68.4425 0 66.9602 0 65.1024L0 55.5383C0 53.6805 0.574917 52.2028 1.72475 51.1049 2.87458 50.007 4.41813 49.4574 6.35543 49.4558 8.31258 49.4558 9.87603 50.0109 11.0457 51.1209 12.2154 52.231 12.8003 53.7035 12.8003 55.5383L12.8003 65.1024C12.8003 66.9572 12.2154 68.4395 11.0457 69.5496 9.87603 70.6597 8.31258 71.2147 6.35543 71.2147 4.41967 71.2147 2.87611 70.6597 1.72475 69.5496ZM9.47236 68.2194C10.2583 67.4717 10.652 66.4724 10.6535 65.2217L10.6535 55.4466C10.6535 54.2234 10.2652 53.2349 9.48842 52.481 8.71166 51.7271 7.66734 51.3542 6.35543 51.3618 5.0848 51.3618 4.06571 51.7349 3.29813 52.481 2.53054 53.2271 2.14829 54.2156 2.15135 55.4466L2.15135 65.2217C2.15135 66.474 2.53362 67.4733 3.29813 68.2194 4.06263 68.9654 5.08175 69.3386 6.35543 69.3386 7.64745 69.3386 8.68643 68.9654 9.47236 68.2194Z" fill="#FFFFFF" transform="matrix(1.00586 0 0 1 892.565 348.083)"/><path d="M22.9699 49.7288 24.6029 49.7288C24.7497 49.7083 24.8852 49.8109 24.9057 49.9576 24.9091 49.9822 24.9091 50.007 24.9057 50.0315L24.9057 70.6092C24.9261 70.756 24.8236 70.8916 24.6768 70.912 24.6522 70.9154 24.6275 70.9154 24.6029 70.912L23.0594 70.912C22.9139 70.9326 22.7792 70.8315 22.7586 70.6858 22.755 70.6604 22.7551 70.6347 22.7589 70.6092L22.7589 52.1783C22.7601 52.1425 22.7428 52.1088 22.713 52.0888 22.6801 52.0679 22.6382 52.0679 22.6052 52.0888L19.3943 53.3893 19.2727 53.4191C19.1511 53.4191 19.0709 53.3388 19.0296 53.1897L18.8805 52.0429 18.8805 51.9833C18.8805 51.8824 18.9493 51.7815 19.0915 51.6806L22.5708 49.8457C22.6926 49.7755 22.8294 49.7354 22.9699 49.7288Z" fill="#FFFFFF" transform="matrix(1.00586 0 0 1 892.565 348.083)"/><path d="M36.6785 49.7288 38.3023 49.7288C38.4491 49.7083 38.5846 49.8109 38.605 49.9576 38.6085 49.9822 38.6085 50.007 38.605 50.0315L38.605 70.6092C38.6254 70.756 38.5229 70.8916 38.3761 70.912 38.3516 70.9154 38.3268 70.9154 38.3023 70.912L36.7587 70.912C36.6119 70.9324 36.4764 70.8299 36.456 70.6831 36.4525 70.6585 36.4525 70.6338 36.456 70.6092L36.456 52.1783C36.4594 52.1239 36.4181 52.0771 36.3638 52.0737 36.3429 52.0723 36.3223 52.0776 36.3046 52.0888L33.0936 53.3893 32.9721 53.4191C32.8505 53.4191 32.7702 53.3388 32.729 53.1897L32.5799 52.0429 32.5799 51.9833C32.5799 51.8824 32.6487 51.7815 32.7909 51.6806L36.2702 49.8457C36.3947 49.7739 36.5349 49.7338 36.6785 49.7288Z" fill="#FFFFFF" transform="matrix(1.00586 0 0 1 892.565 348.083)"/><path d="M57.091 56.8089C58.0481 57.7585 58.5268 59.0298 58.5268 60.6231L58.5268 70.6092C58.5472 70.756 58.4447 70.8916 58.2979 70.912 58.2734 70.9154 58.2486 70.9154 58.2241 70.912L56.6805 70.912C56.5337 70.9324 56.3982 70.8299 56.3778 70.6831 56.3743 70.6585 56.3743 70.6338 56.3778 70.6092L56.3778 61.0451C56.4165 60.0387 56.0516 59.0587 55.364 58.3227 54.6831 57.6147 53.7333 57.2296 52.7517 57.2631 50.8026 57.1562 49.1361 58.6497 49.0292 60.5988 49.0221 60.7277 49.0221 60.8566 49.0292 60.9855L49.0292 70.6184C49.0496 70.7652 48.9471 70.9007 48.8003 70.9212 48.7758 70.9246 48.751 70.9246 48.7265 70.9212L47.1783 70.9212C47.0315 70.9416 46.896 70.839 46.8756 70.6923 46.8721 70.6677 46.8721 70.6429 46.8756 70.6184L46.8756 50.0315C46.8552 49.8847 46.9577 49.7492 47.1045 49.7288 47.129 49.7253 47.1538 49.7253 47.1783 49.7288L48.7219 49.7288C48.8687 49.7083 49.0042 49.8109 49.0246 49.9576 49.0281 49.9822 49.0281 50.007 49.0246 50.0315L49.0246 57.2034C49.023 57.2392 49.0405 57.2734 49.0705 57.2929 49.1003 57.3135 49.1255 57.2929 49.1462 57.2631 50.0345 56.0138 51.3962 55.3885 53.231 55.3869 54.8457 55.3869 56.1323 55.861 57.091 56.8089Z" fill="#FFFFFF" transform="matrix(1.00586 0 0 1 892.565 348.083)"/><path d="M44.9903 24.7153C44.7781 24.8263 44.5988 24.9908 44.4696 25.1924 44.1027 25.6901 43.7976 26.2359 43.4307 26.7336 43.1417 27.1235 42.7976 27.4721 42.433 27.8804 42.3864 27.7802 42.3449 27.6776 42.3091 27.5731 42.2678 27.4033 42.2266 27.2359 42.1876 27.0685L41.66 24.7061C41.66 24.7061 40.9399 21.924 40.7862 21.564 40.2885 20.4034 39.9491 22.08 40.2151 23.8965 40.2167 24.0178 40.2321 24.1387 40.261 24.2566 40.2777 24.3284 40.2961 24.3995 40.316 24.4699 40.3986 24.9286 40.4697 25.2956 40.5316 25.6167 40.5316 25.6465 40.5316 25.674 40.5431 25.7038 40.5683 25.7864 40.355 25.6235 40.3137 25.596 38.9376 24.2199 37.456 23.2405 35.6418 22.0938 32.9973 20.4676 33.2175 20.6603 32.0776 19.5571 31.5592 19.1122 31.2244 18.6603 31.2565 17.8782 31.3574 15.5457 31.3391 11.5962 31.3781 9.25906 31.3987 8.0022 31.44 6.73616 31.4744 5.48847 31.4861 5.41482 31.5051 5.34257 31.5317 5.27287 31.9216 5.55498 32.2771 5.78663 32.6051 6.05268 33.8367 7.05955 35.0707 8.06641 36.2748 9.09393 36.7489 9.46596 37.1881 9.88052 37.5867 10.3324 38.0087 12.3783 39.0867 18.158 39.5408 17.5502 40.066 16.8622 38.6234 9.95171 38.6234 9.95171L38.6234 9.95171C38.2954 8.321 37.8436 6.35084 37.5913 6.45176 37.4583 6.19717 37.3619 6.02974 37.1784 6.1146 37.0427 6.21616 36.9635 6.3763 36.9651 6.54579 37.0051 6.9401 37.0656 7.33207 37.1463 7.72009 37.0872 7.69546 37.0303 7.66553 36.9766 7.63064 35.2243 6.06644 33.4652 4.51371 31.7336 2.92886 31.5109 2.6882 31.3634 2.38763 31.3092 2.0642 31.1946 1.47475 31.1831 0.864668 31.096 0.268345 31.0482 0.13596 30.9384 0.0355663 30.8024-9.84284e-09 30.6625 0.0100767 30.535 0.0835834 30.456 0.199539 30.073 0.834852 29.7244 1.48163 29.7978 2.26373 29.804 2.44646 29.7352 2.6238 29.6074 2.75455 28.2061 3.99995 26.791 5.22929 25.3758 6.45864 24.9034 6.86918 24.4194 7.26826 23.8552 7.74532 23.9194 6.76827 24.4125 5.86461 23.6259 5.02746 23.4878 5.17485 23.3655 5.33629 23.2612 5.50911 23.0153 5.97814 22.817 6.47066 22.6694 6.97927 22.2222 8.94485 21.2727 10.7797 21.3048 12.8232 21.3048 13.298 21.2773 13.9218 21.4929 14.103 21.5869 14.1833 21.541 14.5503 21.7612 14.5617 21.882 14.488 21.9654 14.3661 21.9906 14.2269 22.4172 12.9287 22.8323 11.626 23.2589 10.3279 23.2981 10.1879 23.3733 10.0606 23.4768 9.95859 23.9722 9.54346 24.4768 9.13521 24.9951 8.74301 26.0439 7.96016 27.0967 7.17881 28.1533 6.399 28.573 6.09167 29.0088 5.80956 29.5295 5.45636 29.5295 5.82103 29.5295 6.06873 29.5295 6.31644 29.44 8.01137 29.3322 9.70401 29.2542 11.4012 29.1763 13.1719 29.1052 16.5548 29.0753 18.3301 29.065 18.6853 28.8905 19.0157 28.6029 19.2245 27.1488 20.4975 26.1121 21.4241 24.4378 22.525 22.5892 23.8506 21.4011 24.6167 19.5686 25.8414 19.4612 25.9373 19.3113 25.9694 19.1741 25.9263 18.9241 25.807 19.0021 25.6052 19.0273 25.4676 19.275 23.9699 20.1053 20.4585 20.3621 18.9608 20.4408 18.6159 20.499 18.2667 20.5364 17.9149 20.4493 17.6856 20.1053 17.8209 20.0135 17.9149 19.83 18.0984 19.3851 19.7956 19.2222 20.0342 18.8461 19.1397 18.22 21.4424 18.1328 21.869 17.9035 22.9883 17.6489 24.1052 17.4012 25.2222 17.2291 25.9905 17.0525 26.7566 16.8645 27.5845 16.7395 27.5547 16.6344 27.4705 16.5778 27.3552 16.1053 26.6969 15.642 26.0295 15.1695 25.3713 14.7842 24.8323 14.3897 24.3002 13.9975 23.7658 13.8255 23.5364 13.6696 23.5571 13.4608 23.7658 13.1397 24.0639 13.3783 24.3644 13.4608 24.619 14.0965 26.6283 15.0886 28.507 16.3897 30.1648 16.1145 30.9813 15.7016 32.3872 16.2039 32.3345 16.509 32.3001 16.892 31.7519 17.2269 31.1464 17.6609 31.6168 18.1203 32.0631 18.603 32.4836 20.5068 34.1574 22.8131 35.3074 25.2956 35.8207 26.252 36.0225 27.2244 36.1578 28.2497 36.3344 28.2244 36.933 28.2107 37.5202 28.1694 38.1073 28.112 38.9353 27.9951 39.7702 28.7451 40.4009 28.8276 40.472 28.8391 40.6302 28.8781 40.7564 29.0088 41.2658 29.1728 41.766 29.3689 42.2541 29.6235 42.7953 29.9859 42.855 30.3781 42.4697 30.5177 42.3194 30.6047 42.1279 30.6258 41.9238 30.7106 40.9123 30.7749 39.9009 30.8253 38.8871 30.8643 38.0936 30.8735 37.3 30.8964 36.5202 32.9927 36.2587 34.7771 35.3597 36.5592 34.4881 38.3667 33.5675 40.0323 32.3911 41.5041 30.995 41.5889 31.3047 41.6509 31.5409 41.7174 31.7748 41.8135 32.1735 41.9298 32.567 42.066 32.9537 42.2059 33.3046 42.5591 33.3872 42.7036 33.1372 42.9559 32.6991 43.144 32.2336 43.0293 31.706 42.9048 31.2843 42.8142 30.8533 42.7587 30.4171 42.7412 30.0953 42.8213 29.7756 42.988 29.4996 43.5132 28.6992 44.1463 27.9698 44.6417 27.1556 44.9763 26.6494 45.1912 26.0738 45.2701 25.4722 45.3205 24.7703 45.2036 24.6832 44.9903 24.7153ZM28.8987 22.9607C28.8666 25.135 28.8185 27.3185 28.7841 29.4836 28.7634 30.784 28.7336 32.0845 28.7061 33.3826 28.7061 33.7748 28.424 33.8046 28.1235 33.8253 27.018 33.901 25.9538 33.6533 24.885 33.4331 22.6153 32.9684 20.5376 31.832 18.9218 30.1717 18.8507 30.0983 18.7773 30.0226 18.7131 29.9423 18.5388 29.7267 18.3667 29.5088 18.1901 29.284 21.7727 26.3024 25.3185 24.9492 28.9217 21.9447L28.9217 22.2727C28.9217 22.2887 28.9217 22.3598 28.9217 22.5685 28.9102 22.7061 28.8987 22.83 28.8987 22.9607ZM40.7197 29.5088C39.3589 30.5932 37.8773 31.5166 36.3046 32.2611 34.7402 32.9817 33.09 33.4989 31.3941 33.8 31.0501 33.8597 30.9354 33.5707 30.9354 33.3413 30.9193 32.4102 30.9538 31.479 30.9721 30.5501 30.9721 30.4331 31.0088 30.3207 31.0111 30.1969 31.0455 28.2909 31.073 26.385 31.1097 24.4814 31.1372 23.1052 31.1739 23.0708 31.206 21.697 31.206 21.6282 31.2496 21.697 31.2519 21.697 32.2611 22.2795 32.5271 22.385 33.5248 22.9607 35.0363 23.9378 36.1991 24.4194 37.4972 25.5089 38.5339 26.3804 39.6647 27.174 40.6968 28.0501 41.1279 28.4194 41.1279 29.1877 40.7105 29.5088Z" fill="#FFFFFF" transform="matrix(1.00586 0 0 1 892.565 348.083)"/></g></svg>